<svg xmlns="http://www.w3.org/2000/svg" xmlns:xlink="http://www.w3.org/1999/xlink" version="1.1" id="Layer_1" x="0px" y="0px" style="enable-background:new 0 0 2000 2000;" xml:space="preserve" viewBox="802.69 814 394.57 371.99"><style type="text/css">	.st0{fill:#FFFFFF;}</style><g>	<g>		<path class="st0" d="M1082.83,1073.85c-2.28-0.12-4.53-0.11-6.75,0.04c-11.5,0.75-22.45-4.96-28.39-14.84l0,0    c-5.97-9.94-6.13-22.45-0.01-32.29c5.6-9,8.73-19.71,8.41-31.17c-0.81-29.45-24.72-53.51-54.17-54.5    c-32.37-1.08-58.87,25.26-58.03,57.58c0.75,29.05,24.02,52.98,53.03,54.54c2.28,0.12,4.53,0.11,6.75-0.04    c11.5-0.75,22.45,4.96,28.39,14.83h0c5.97,9.93,6.13,22.45,0.01,32.29c-5.6,9-8.72,19.71-8.41,31.17    c0.82,29.45,24.72,53.51,54.16,54.5c32.37,1.09,58.86-25.24,58.03-57.57C1135.11,1099.35,1111.85,1075.41,1082.83,1073.85z     M1079.77,1152.12c-12.28,0-22.24-9.96-22.24-22.24s9.96-22.23,22.24-22.23s22.23,9.95,22.23,22.23    S1092.05,1152.12,1079.77,1152.12z"></path>		<path class="st0" d="M1143.89,941.12c-2.51-0.12-4.98-0.07-7.41,0.13c-8.93,0.75-17.49-3.65-21.78-11.51l-0.35-0.65    c-4.33-7.94-3.38-17.62,2.14-24.79c7.74-10.05,12.15-22.79,11.57-36.58c-1.23-29.49-25.62-53.23-55.14-53.71    c-23.61-0.38-43.94,13.82-52.59,34.18c-3.34,7.86-11.09,12.93-19.63,12.93h-0.01c-8.54,0-16.29-5.07-19.63-12.93    c-8.89-20.92-30.1-35.33-54.53-34.12c-28.43,1.41-51.55,24.36-53.16,52.77c-0.77,13.56,3.28,26.15,10.6,36.22    c5.14,7.07,5.73,16.47,1.28,23.99l-2.11,3.57c-4.19,7.09-12.04,11.16-20.25,10.57c-2.04-0.15-4.11-0.18-6.21-0.11    c-29.64,1.1-53.54,25.57-53.98,55.23c-0.46,31.38,24.84,56.97,56.11,56.97c1.29,0,2.58-0.04,3.85-0.13    c8.3-0.56,16.25,3.4,20.48,10.56l2.11,3.57c4.45,7.52,3.86,16.92-1.28,24c-6.98,9.61-10.99,21.51-10.67,34.37    c0.73,29.51,24.66,53.67,54.16,54.66c32.37,1.09,58.86-25.25,58.04-57.56c-0.76-29.69-25-53.89-54.69-54.63    c-2.93-0.07-5.82,0.08-8.64,0.45c-8.59,1.11-17.02-3-21.43-10.46l-0.39-0.65c-4.69-7.92-3.74-17.84,2.05-24.98    c7.83-9.64,12.52-21.93,12.52-35.32c0-13.39-4.69-25.67-12.52-35.32c-5.8-7.14-6.74-17.06-2.05-24.98l0.47-0.8    c4.41-7.46,12.87-11.39,21.46-10.29c2.33,0.3,4.7,0.45,7.1,0.45c23.11,0,42.95-13.97,51.55-33.92c3.42-7.94,11.1-13.2,19.75-13.2    l0,0c8.65,0,16.32,5.26,19.75,13.2c8.6,19.95,28.44,33.92,51.55,33.92c1.62,0,3.23-0.07,4.82-0.21    c8.92-0.77,17.45,3.81,21.73,11.67l0.27,0.5c4.33,7.94,3.38,17.62-2.14,24.79c-7.75,10.07-12.16,22.83-11.57,36.65    c1.21,28.12,25.98,52.66,54.11,53.62c32.35,1.1,58.84-25.21,58.05-57.49C1196.56,966.55,1173.08,942.52,1143.89,941.12z"></path>	</g></g></svg>